<svg width="1024" height="753" viewBox="0 0 1024 753" fill="none" xmlns="http://www.w3.org/2000/svg">
<g clip-path="url(#clip0_122_130)">
<rect width="1024" height="753" fill="#121214"/>
<g opacity="0.2" filter="url(#filter0_f_122_130)">
<ellipse cx="583.5" cy="34" rx="599.5" ry="350" fill="#B3A659"/>
</g>
<path d="M154.806 270C156.143 270 157.155 270.63 157.842 271.891C158.542 273.138 158.892 274.953 158.892 277.336C158.892 279.719 158.542 281.541 157.842 282.802C157.155 284.063 156.143 284.693 154.806 284.693C153.481 284.693 152.469 284.063 151.77 282.802C151.07 281.541 150.72 279.719 150.72 277.336C150.72 274.967 151.07 273.152 151.77 271.891C152.469 270.63 153.481 270 154.806 270ZM152.051 277.336C152.051 279.026 152.188 280.35 152.463 281.306L156.624 272.099C156.187 271.448 155.581 271.122 154.806 271.122C153.944 271.122 153.269 271.635 152.782 272.66C152.294 273.672 152.051 275.23 152.051 277.336ZM154.806 283.55C155.681 283.55 156.362 283.044 156.849 282.033C157.336 281.008 157.58 279.442 157.58 277.336C157.58 275.549 157.424 274.163 157.111 273.18L152.95 282.469C153.4 283.19 154.019 283.55 154.806 283.55Z" fill="url(#paint0_linear_122_130)" fill-opacity="0.6"/>
<path d="M155.931 307.135H158.686V308.236H151.545V307.135H154.731V295.455L151.695 297.471L151.17 296.536L154.918 293.959H155.931V307.135Z" fill="url(#paint1_linear_122_130)" fill-opacity="0.6"/>
<path d="M154.806 317.502C156.143 317.502 157.155 318.133 157.842 319.393C158.542 320.64 158.892 322.455 158.892 324.838C158.892 327.221 158.542 329.043 157.842 330.304C157.155 331.565 156.143 332.195 154.806 332.195C153.481 332.195 152.469 331.565 151.77 330.304C151.07 329.043 150.72 327.221 150.72 324.838C150.72 322.469 151.07 320.654 151.77 319.393C152.469 318.133 153.481 317.502 154.806 317.502ZM152.051 324.838C152.051 326.529 152.188 327.852 152.463 328.808L156.624 319.601C156.187 318.95 155.581 318.624 154.806 318.624C153.944 318.624 153.269 319.137 152.782 320.162C152.294 321.174 152.051 322.732 152.051 324.838ZM154.806 331.052C155.681 331.052 156.362 330.546 156.849 329.535C157.336 328.51 157.58 326.944 157.58 324.838C157.58 323.051 157.424 321.665 157.111 320.682L152.95 329.971C153.4 330.692 154.019 331.052 154.806 331.052Z" fill="url(#paint2_linear_122_130)" fill-opacity="0.6"/>
<path d="M155.931 354.637H158.686V355.738H151.545V354.637H154.731V342.957L151.695 344.973L151.17 344.038L154.918 341.461H155.931V354.637Z" fill="url(#paint3_linear_122_130)" fill-opacity="0.6"/>
<path d="M155.931 378.388H158.686V379.489H151.545V378.388H154.731V366.708L151.695 368.724L151.17 367.789L154.918 365.212H155.931V378.388Z" fill="url(#paint4_linear_122_130)" fill-opacity="0.6"/>
<path d="M154.806 388.755C156.143 388.755 157.155 389.386 157.842 390.646C158.542 391.893 158.892 393.708 158.892 396.091C158.892 398.474 158.542 400.296 157.842 401.557C157.155 402.818 156.143 403.448 154.806 403.448C153.481 403.448 152.469 402.818 151.77 401.557C151.07 400.296 150.72 398.474 150.72 396.091C150.72 393.722 151.07 391.907 151.77 390.646C152.469 389.386 153.481 388.755 154.806 388.755ZM152.051 396.091C152.051 397.782 152.188 399.105 152.463 400.061L156.624 390.854C156.187 390.203 155.581 389.878 154.806 389.878C153.944 389.878 153.269 390.39 152.782 391.415C152.294 392.427 152.051 393.985 152.051 396.091ZM154.806 402.305C155.681 402.305 156.362 401.8 156.849 400.788C157.336 399.763 157.58 398.197 157.58 396.091C157.58 394.304 157.424 392.919 157.111 391.935L152.95 401.225C153.4 401.945 154.019 402.305 154.806 402.305Z" fill="url(#paint5_linear_122_130)" fill-opacity="0.6"/>
<path d="M155.931 425.89H158.686V426.992H151.545V425.89H154.731V414.21L151.695 416.226L151.17 415.291L154.918 412.714H155.931V425.89Z" fill="url(#paint6_linear_122_130)" fill-opacity="0.6"/>
<path d="M154.806 436.257C156.143 436.257 157.155 436.888 157.842 438.149C158.542 439.396 158.892 441.211 158.892 443.594C158.892 445.977 158.542 447.798 157.842 449.059C157.155 450.32 156.143 450.95 154.806 450.95C153.481 450.95 152.469 450.32 151.77 449.059C151.07 447.798 150.72 445.977 150.72 443.594C150.72 441.224 151.07 439.409 151.77 438.149C152.469 436.888 153.481 436.257 154.806 436.257ZM152.051 443.594C152.051 445.284 152.188 446.607 152.463 447.563L156.624 438.356C156.187 437.705 155.581 437.38 154.806 437.38C153.944 437.38 153.269 437.892 152.782 438.918C152.294 439.929 152.051 441.488 152.051 443.594ZM154.806 449.807C155.681 449.807 156.362 449.302 156.849 448.29C157.336 447.265 157.58 445.699 157.58 443.594C157.58 441.806 157.424 440.421 157.111 439.437L152.95 448.727C153.4 449.447 154.019 449.807 154.806 449.807Z" fill="url(#paint7_linear_122_130)" fill-opacity="0.6"/>
<path d="M154.806 460.008C156.143 460.008 157.155 460.639 157.842 461.9C158.542 463.147 158.892 464.962 158.892 467.345C158.892 469.728 158.542 471.549 157.842 472.81C157.155 474.071 156.143 474.701 154.806 474.701C153.481 474.701 152.469 474.071 151.77 472.81C151.07 471.549 150.72 469.728 150.72 467.345C150.72 464.975 151.07 463.16 151.77 461.9C152.469 460.639 153.481 460.008 154.806 460.008ZM152.051 467.345C152.051 469.035 152.188 470.358 152.463 471.314L156.624 462.107C156.187 461.456 155.581 461.131 154.806 461.131C153.944 461.131 153.269 461.643 152.782 462.669C152.294 463.68 152.051 465.239 152.051 467.345ZM154.806 473.558C155.681 473.558 156.362 473.053 156.849 472.041C157.336 471.016 157.58 469.451 157.58 467.345C157.58 465.557 157.424 464.172 157.111 463.188L152.95 472.478C153.4 473.198 154.019 473.558 154.806 473.558Z" fill="url(#paint8_linear_122_130)" fill-opacity="0.6"/>
<path d="M155.931 497.143H158.686V498.245H151.545V497.143H154.731V485.464L151.695 487.48L151.17 486.544L154.918 483.967H155.931V497.143Z" fill="url(#paint9_linear_122_130)" fill-opacity="0.6"/>
<path d="M154.806 507.511C156.143 507.511 157.155 508.141 157.842 509.402C158.542 510.649 158.892 512.464 158.892 514.847C158.892 517.23 158.542 519.052 157.842 520.312C157.155 521.573 156.143 522.204 154.806 522.204C153.481 522.204 152.469 521.573 151.77 520.312C151.07 519.052 150.72 517.23 150.72 514.847C150.72 512.478 151.07 510.663 151.77 509.402C152.469 508.141 153.481 507.511 154.806 507.511ZM152.051 514.847C152.051 516.537 152.188 517.86 152.463 518.816L156.624 509.61C156.187 508.958 155.581 508.633 154.806 508.633C153.944 508.633 153.269 509.145 152.782 510.171C152.294 511.182 152.051 512.741 152.051 514.847ZM154.806 521.061C155.681 521.061 156.362 520.555 156.849 519.543C157.336 518.518 157.58 516.953 157.58 514.847C157.58 513.059 157.424 511.674 157.111 510.69L152.95 519.98C153.4 520.7 154.019 521.061 154.806 521.061Z" fill="url(#paint10_linear_122_130)" fill-opacity="0.6"/>
<path d="M155.931 544.645H158.686V545.747H151.545V544.645H154.731V532.966L151.695 534.982L151.17 534.046L154.918 531.469H155.931V544.645Z" fill="url(#paint11_linear_122_130)" fill-opacity="0.6"/>
<path d="M155.931 568.396H158.686V569.498H151.545V568.396H154.731V556.717L151.695 558.733L151.17 557.798L154.918 555.221H155.931V568.396Z" fill="url(#paint12_linear_122_130)" fill-opacity="0.6"/>
<path d="M189.614 317.502C190.951 317.502 191.963 318.133 192.65 319.393C193.35 320.64 193.7 322.455 193.7 324.838C193.7 327.221 193.35 329.043 192.65 330.304C191.963 331.565 190.951 332.195 189.614 332.195C188.289 332.195 187.277 331.565 186.577 330.304C185.878 329.043 185.528 327.221 185.528 324.838C185.528 322.469 185.878 320.654 186.577 319.393C187.277 318.133 188.289 317.502 189.614 317.502ZM186.859 324.838C186.859 326.529 186.996 327.852 187.271 328.808L191.432 319.601C190.995 318.95 190.389 318.624 189.614 318.624C188.752 318.624 188.077 319.137 187.59 320.162C187.102 321.174 186.859 322.732 186.859 324.838ZM189.614 331.052C190.488 331.052 191.169 330.546 191.657 329.535C192.144 328.51 192.388 326.944 192.388 324.838C192.388 323.051 192.232 321.665 191.919 320.682L187.758 329.971C188.208 330.692 188.827 331.052 189.614 331.052Z" fill="url(#paint13_linear_122_130)" fill-opacity="0.6"/>
<path d="M190.738 354.637H193.494V355.738H186.353V354.637H189.539V342.957L186.503 344.973L185.978 344.038L189.726 341.461H190.738V354.637Z" fill="url(#paint14_linear_122_130)" fill-opacity="0.6"/>
<path d="M189.614 365.004C190.951 365.004 191.963 365.635 192.65 366.895C193.35 368.142 193.7 369.957 193.7 372.34C193.7 374.723 193.35 376.545 192.65 377.806C191.963 379.067 190.951 379.697 189.614 379.697C188.289 379.697 187.277 379.067 186.577 377.806C185.878 376.545 185.528 374.723 185.528 372.34C185.528 369.971 185.878 368.156 186.577 366.895C187.277 365.635 188.289 365.004 189.614 365.004ZM186.859 372.34C186.859 374.031 186.996 375.354 187.271 376.31L191.432 367.103C190.995 366.452 190.389 366.126 189.614 366.126C188.752 366.126 188.077 366.639 187.59 367.664C187.102 368.676 186.859 370.234 186.859 372.34ZM189.614 378.554C190.488 378.554 191.169 378.049 191.657 377.037C192.144 376.012 192.388 374.446 192.388 372.34C192.388 370.553 192.232 369.168 191.919 368.184L187.758 377.474C188.208 378.194 188.827 378.554 189.614 378.554Z" fill="url(#paint15_linear_122_130)" fill-opacity="0.6"/>
<path d="M189.614 388.755C190.951 388.755 191.963 389.386 192.65 390.646C193.35 391.893 193.7 393.708 193.7 396.091C193.7 398.474 193.35 400.296 192.65 401.557C191.963 402.818 190.951 403.448 189.614 403.448C188.289 403.448 187.277 402.818 186.577 401.557C185.878 400.296 185.528 398.474 185.528 396.091C185.528 393.722 185.878 391.907 186.577 390.646C187.277 389.386 188.289 388.755 189.614 388.755ZM186.859 396.091C186.859 397.782 186.996 399.105 187.271 400.061L191.432 390.854C190.995 390.203 190.389 389.878 189.614 389.878C188.752 389.878 188.077 390.39 187.59 391.415C187.102 392.427 186.859 393.985 186.859 396.091ZM189.614 402.305C190.488 402.305 191.169 401.8 191.657 400.788C192.144 399.763 192.388 398.197 192.388 396.091C192.388 394.304 192.232 392.919 191.919 391.935L187.758 401.225C188.208 401.945 188.827 402.305 189.614 402.305Z" fill="url(#paint16_linear_122_130)" fill-opacity="0.6"/>
<path d="M190.738 425.89H193.494V426.992H186.353V425.89H189.539V414.21L186.503 416.226L185.978 415.291L189.726 412.714H190.738V425.89Z" fill="url(#paint17_linear_122_130)" fill-opacity="0.6"/>
<path d="M189.614 436.257C190.951 436.257 191.963 436.888 192.65 438.149C193.35 439.396 193.7 441.211 193.7 443.594C193.7 445.977 193.35 447.798 192.65 449.059C191.963 450.32 190.951 450.95 189.614 450.95C188.289 450.95 187.277 450.32 186.577 449.059C185.878 447.798 185.528 445.977 185.528 443.594C185.528 441.224 185.878 439.409 186.577 438.149C187.277 436.888 188.289 436.257 189.614 436.257ZM186.859 443.594C186.859 445.284 186.996 446.607 187.271 447.563L191.432 438.356C190.995 437.705 190.389 437.38 189.614 437.38C188.752 437.38 188.077 437.892 187.59 438.918C187.102 439.929 186.859 441.488 186.859 443.594ZM189.614 449.807C190.488 449.807 191.169 449.302 191.657 448.29C192.144 447.265 192.388 445.699 192.388 443.594C192.388 441.806 192.232 440.421 191.919 439.437L187.758 448.727C188.208 449.447 188.827 449.807 189.614 449.807Z" fill="url(#paint18_linear_122_130)" fill-opacity="0.6"/>
<path d="M190.738 473.392H193.494V474.494H186.353V473.392H189.539V461.713L186.503 463.728L185.978 462.793L189.726 460.216H190.738V473.392Z" fill="url(#paint19_linear_122_130)" fill-opacity="0.6"/>
<path d="M189.614 483.76C190.951 483.76 191.963 484.39 192.65 485.651C193.35 486.898 193.7 488.713 193.7 491.096C193.7 493.479 193.35 495.301 192.65 496.561C191.963 497.822 190.951 498.453 189.614 498.453C188.289 498.453 187.277 497.822 186.577 496.561C185.878 495.301 185.528 493.479 185.528 491.096C185.528 488.726 185.878 486.911 186.577 485.651C187.277 484.39 188.289 483.76 189.614 483.76ZM186.859 491.096C186.859 492.786 186.996 494.109 187.271 495.065L191.432 485.859C190.995 485.207 190.389 484.882 189.614 484.882C188.752 484.882 188.077 485.394 187.59 486.42C187.102 487.431 186.859 488.99 186.859 491.096ZM189.614 497.31C190.488 497.31 191.169 496.804 191.657 495.792C192.144 494.767 192.388 493.202 192.388 491.096C192.388 489.308 192.232 487.923 191.919 486.939L187.758 496.229C188.208 496.949 188.827 497.31 189.614 497.31Z" fill="url(#paint20_linear_122_130)" fill-opacity="0.6"/>
<path d="M189.614 507.511C190.951 507.511 191.963 508.141 192.65 509.402C193.35 510.649 193.7 512.464 193.7 514.847C193.7 517.23 193.35 519.052 192.65 520.312C191.963 521.573 190.951 522.204 189.614 522.204C188.289 522.204 187.277 521.573 186.577 520.312C185.878 519.052 185.528 517.23 185.528 514.847C185.528 512.478 185.878 510.663 186.577 509.402C187.277 508.141 188.289 507.511 189.614 507.511ZM186.859 514.847C186.859 516.537 186.996 517.86 187.271 518.816L191.432 509.61C190.995 508.958 190.389 508.633 189.614 508.633C188.752 508.633 188.077 509.145 187.59 510.171C187.102 511.182 186.859 512.741 186.859 514.847ZM189.614 521.061C190.488 521.061 191.169 520.555 191.657 519.543C192.144 518.518 192.388 516.953 192.388 514.847C192.388 513.059 192.232 511.674 191.919 510.69L187.758 519.98C188.208 520.7 188.827 521.061 189.614 521.061Z" fill="url(#paint21_linear_122_130)" fill-opacity="0.6"/>
<path d="M190.738 544.645H193.494V545.747H186.353V544.645H189.539V532.966L186.503 534.982L185.978 534.046L189.726 531.469H190.738V544.645Z" fill="url(#paint22_linear_122_130)" fill-opacity="0.6"/>
<path d="M189.614 555.013C190.951 555.013 191.963 555.643 192.65 556.904C193.35 558.151 193.7 559.966 193.7 562.349C193.7 564.732 193.35 566.554 192.65 567.815C191.963 569.075 190.951 569.706 189.614 569.706C188.289 569.706 187.277 569.075 186.577 567.815C185.878 566.554 185.528 564.732 185.528 562.349C185.528 559.98 185.878 558.165 186.577 556.904C187.277 555.643 188.289 555.013 189.614 555.013ZM186.859 562.349C186.859 564.039 186.996 565.362 187.271 566.318L191.432 557.112C190.995 556.461 190.389 556.135 189.614 556.135C188.752 556.135 188.077 556.648 187.59 557.673C187.102 558.684 186.859 560.243 186.859 562.349ZM189.614 568.563C190.488 568.563 191.169 568.057 191.657 567.046C192.144 566.02 192.388 564.455 192.388 562.349C192.388 560.562 192.232 559.176 191.919 558.192L187.758 567.482C188.208 568.202 188.827 568.563 189.614 568.563Z" fill="url(#paint23_linear_122_130)" fill-opacity="0.6"/>
<path d="M190.738 592.148H193.494V593.249H186.353V592.148H189.539V580.468L186.503 582.484L185.978 581.549L189.726 578.972H190.738V592.148Z" fill="url(#paint24_linear_122_130)" fill-opacity="0.6"/>
<path d="M190.738 615.899H193.494V617H186.353V615.899H189.539V604.219L186.503 606.235L185.978 605.3L189.726 602.723H190.738V615.899Z" fill="url(#paint25_linear_122_130)" fill-opacity="0.6"/>
<path d="M137.402 341.253C138.739 341.253 139.751 341.884 140.438 343.144C141.138 344.391 141.488 346.206 141.488 348.589C141.488 350.972 141.138 352.794 140.438 354.055C139.751 355.316 138.739 355.946 137.402 355.946C136.078 355.946 135.065 355.316 134.366 354.055C133.666 352.794 133.316 350.972 133.316 348.589C133.316 346.22 133.666 344.405 134.366 343.144C135.065 341.884 136.078 341.253 137.402 341.253ZM134.647 348.589C134.647 350.28 134.784 351.603 135.059 352.559L139.22 343.352C138.783 342.701 138.177 342.375 137.402 342.375C136.54 342.375 135.865 342.888 135.378 343.913C134.891 344.925 134.647 346.483 134.647 348.589ZM137.402 354.803C138.277 354.803 138.958 354.297 139.445 353.286C139.932 352.261 140.176 350.695 140.176 348.589C140.176 346.802 140.02 345.417 139.707 344.433L135.547 353.722C135.996 354.443 136.615 354.803 137.402 354.803Z" fill="url(#paint26_linear_122_130)" fill-opacity="0.6"/>
<path d="M137.402 365.004C138.739 365.004 139.751 365.635 140.438 366.895C141.138 368.142 141.488 369.957 141.488 372.34C141.488 374.723 141.138 376.545 140.438 377.806C139.751 379.067 138.739 379.697 137.402 379.697C136.078 379.697 135.065 379.067 134.366 377.806C133.666 376.545 133.316 374.723 133.316 372.34C133.316 369.971 133.666 368.156 134.366 366.895C135.065 365.635 136.078 365.004 137.402 365.004ZM134.647 372.34C134.647 374.031 134.784 375.354 135.059 376.31L139.22 367.103C138.783 366.452 138.177 366.126 137.402 366.126C136.54 366.126 135.865 366.639 135.378 367.664C134.891 368.676 134.647 370.234 134.647 372.34ZM137.402 378.554C138.277 378.554 138.958 378.049 139.445 377.037C139.932 376.012 140.176 374.446 140.176 372.34C140.176 370.553 140.02 369.168 139.707 368.184L135.547 377.474C135.996 378.194 136.615 378.554 137.402 378.554Z" fill="url(#paint27_linear_122_130)" fill-opacity="0.6"/>
<path d="M138.527 402.139H141.282V403.24H134.141V402.139H137.327V390.459L134.291 392.475L133.766 391.54L137.515 388.963H138.527V402.139Z" fill="url(#paint28_linear_122_130)" fill-opacity="0.6"/>
<path d="M137.402 412.506C138.739 412.506 139.751 413.137 140.438 414.398C141.138 415.644 141.488 417.459 141.488 419.842C141.488 422.225 141.138 424.047 140.438 425.308C139.751 426.569 138.739 427.199 137.402 427.199C136.078 427.199 135.065 426.569 134.366 425.308C133.666 424.047 133.316 422.225 133.316 419.842C133.316 417.473 133.666 415.658 134.366 414.398C135.065 413.137 136.078 412.506 137.402 412.506ZM134.647 419.842C134.647 421.533 134.784 422.856 135.059 423.812L139.22 414.605C138.783 413.954 138.177 413.629 137.402 413.629C136.54 413.629 135.865 414.141 135.378 415.166C134.891 416.178 134.647 417.737 134.647 419.842ZM137.402 426.056C138.277 426.056 138.958 425.551 139.445 424.539C139.932 423.514 140.176 421.948 140.176 419.842C140.176 418.055 140.02 416.67 139.707 415.686L135.547 424.976C135.996 425.696 136.615 426.056 137.402 426.056Z" fill="url(#paint29_linear_122_130)" fill-opacity="0.6"/>
<path d="M138.527 449.641H141.282V450.743H134.141V449.641H137.327V437.962L134.291 439.977L133.766 439.042L137.515 436.465H138.527V449.641Z" fill="url(#paint30_linear_122_130)" fill-opacity="0.6"/>
<path d="M138.527 473.392H141.282V474.494H134.141V473.392H137.327V461.713L134.291 463.728L133.766 462.793L137.515 460.216H138.527V473.392Z" fill="url(#paint31_linear_122_130)" fill-opacity="0.6"/>
<path d="M173.334 307.135H176.09V308.236H168.949V307.135H172.135V295.455L169.099 297.471L168.574 296.536L172.322 293.959H173.334V307.135Z" fill="url(#paint32_linear_122_130)" fill-opacity="0.6"/>
<path d="M172.21 317.502C173.547 317.502 174.559 318.133 175.246 319.393C175.946 320.64 176.296 322.455 176.296 324.838C176.296 327.221 175.946 329.043 175.246 330.304C174.559 331.565 173.547 332.195 172.21 332.195C170.885 332.195 169.873 331.565 169.174 330.304C168.474 329.043 168.124 327.221 168.124 324.838C168.124 322.469 168.474 320.654 169.174 319.393C169.873 318.133 170.885 317.502 172.21 317.502ZM169.455 324.838C169.455 326.529 169.592 327.852 169.867 328.808L174.028 319.601C173.591 318.95 172.985 318.624 172.21 318.624C171.348 318.624 170.673 319.137 170.186 320.162C169.698 321.174 169.455 322.732 169.455 324.838ZM172.21 331.052C173.085 331.052 173.766 330.546 174.253 329.535C174.74 328.51 174.984 326.944 174.984 324.838C174.984 323.051 174.828 321.665 174.515 320.682L170.354 329.971C170.804 330.692 171.423 331.052 172.21 331.052Z" fill="url(#paint33_linear_122_130)" fill-opacity="0.6"/>
<path d="M173.334 354.637H176.09V355.738H168.949V354.637H172.135V342.957L169.099 344.973L168.574 344.038L172.322 341.461H173.334V354.637Z" fill="url(#paint34_linear_122_130)" fill-opacity="0.6"/>
<path d="M173.334 378.388H176.09V379.489H168.949V378.388H172.135V366.708L169.099 368.724L168.574 367.789L172.322 365.212H173.334V378.388Z" fill="url(#paint35_linear_122_130)" fill-opacity="0.6"/>
<path d="M172.21 388.755C173.547 388.755 174.559 389.386 175.246 390.646C175.946 391.893 176.296 393.708 176.296 396.091C176.296 398.474 175.946 400.296 175.246 401.557C174.559 402.818 173.547 403.448 172.21 403.448C170.885 403.448 169.873 402.818 169.174 401.557C168.474 400.296 168.124 398.474 168.124 396.091C168.124 393.722 168.474 391.907 169.174 390.646C169.873 389.386 170.885 388.755 172.21 388.755ZM169.455 396.091C169.455 397.782 169.592 399.105 169.867 400.061L174.028 390.854C173.591 390.203 172.985 389.878 172.21 389.878C171.348 389.878 170.673 390.39 170.186 391.415C169.698 392.427 169.455 393.985 169.455 396.091ZM172.21 402.305C173.085 402.305 173.766 401.8 174.253 400.788C174.74 399.763 174.984 398.197 174.984 396.091C174.984 394.304 174.828 392.919 174.515 391.935L170.354 401.225C170.804 401.945 171.423 402.305 172.21 402.305Z" fill="url(#paint36_linear_122_130)" fill-opacity="0.6"/>
<path d="M173.334 425.89H176.09V426.992H168.949V425.89H172.135V414.21L169.099 416.226L168.574 415.291L172.322 412.714H173.334V425.89Z" fill="url(#paint37_linear_122_130)" fill-opacity="0.6"/>
<path d="M173.334 449.641H176.09V450.743H168.949V449.641H172.135V437.962L169.099 439.977L168.574 439.042L172.322 436.465H173.334V449.641Z" fill="url(#paint38_linear_122_130)" fill-opacity="0.6"/>
<path d="M172.21 460.008C173.547 460.008 174.559 460.639 175.246 461.9C175.946 463.147 176.296 464.962 176.296 467.345C176.296 469.728 175.946 471.549 175.246 472.81C174.559 474.071 173.547 474.701 172.21 474.701C170.885 474.701 169.873 474.071 169.174 472.81C168.474 471.549 168.124 469.728 168.124 467.345C168.124 464.975 168.474 463.16 169.174 461.9C169.873 460.639 170.885 460.008 172.21 460.008ZM169.455 467.345C169.455 469.035 169.592 470.358 169.867 471.314L174.028 462.107C173.591 461.456 172.985 461.131 172.21 461.131C171.348 461.131 170.673 461.643 170.186 462.669C169.698 463.68 169.455 465.239 169.455 467.345ZM172.21 473.558C173.085 473.558 173.766 473.053 174.253 472.041C174.74 471.016 174.984 469.451 174.984 467.345C174.984 465.557 174.828 464.172 174.515 463.188L170.354 472.478C170.804 473.198 171.423 473.558 172.21 473.558Z" fill="url(#paint39_linear_122_130)" fill-opacity="0.6"/>
<path d="M173.334 497.143H176.09V498.245H168.949V497.143H172.135V485.464L169.099 487.48L168.574 486.544L172.322 483.967H173.334V497.143Z" fill="url(#paint40_linear_122_130)" fill-opacity="0.6"/>
<path d="M172.21 507.511C173.547 507.511 174.559 508.141 175.246 509.402C175.946 510.649 176.296 512.464 176.296 514.847C176.296 517.23 175.946 519.052 175.246 520.312C174.559 521.573 173.547 522.204 172.21 522.204C170.885 522.204 169.873 521.573 169.174 520.312C168.474 519.052 168.124 517.23 168.124 514.847C168.124 512.478 168.474 510.663 169.174 509.402C169.873 508.141 170.885 507.511 172.21 507.511ZM169.455 514.847C169.455 516.537 169.592 517.86 169.867 518.816L174.028 509.61C173.591 508.958 172.985 508.633 172.21 508.633C171.348 508.633 170.673 509.145 170.186 510.171C169.698 511.182 169.455 512.741 169.455 514.847ZM172.21 521.061C173.085 521.061 173.766 520.555 174.253 519.543C174.74 518.518 174.984 516.953 174.984 514.847C174.984 513.059 174.828 511.674 174.515 510.69L170.354 519.98C170.804 520.7 171.423 521.061 172.21 521.061Z" fill="url(#paint41_linear_122_130)" fill-opacity="0.6"/>
<path d="M207.018 293.751C208.355 293.751 209.367 294.381 210.054 295.642C210.754 296.889 211.104 298.704 211.104 301.087C211.104 303.47 210.754 305.292 210.054 306.553C209.367 307.814 208.355 308.444 207.018 308.444C205.693 308.444 204.681 307.814 203.981 306.553C203.282 305.292 202.932 303.47 202.932 301.087C202.932 298.718 203.282 296.903 203.981 295.642C204.681 294.381 205.693 293.751 207.018 293.751ZM204.263 301.087C204.263 302.777 204.4 304.101 204.675 305.057L208.836 295.85C208.398 295.199 207.792 294.873 207.018 294.873C206.156 294.873 205.481 295.386 204.994 296.411C204.506 297.423 204.263 298.981 204.263 301.087ZM207.018 307.301C207.892 307.301 208.573 306.795 209.061 305.784C209.548 304.759 209.792 303.193 209.792 301.087C209.792 299.3 209.635 297.914 209.323 296.931L205.162 306.22C205.612 306.941 206.231 307.301 207.018 307.301Z" fill="url(#paint42_linear_122_130)" fill-opacity="0.6"/>
<path d="M208.142 330.886H210.897V331.987H203.757V330.886H206.943V319.206L203.906 321.222L203.382 320.287L207.13 317.71H208.142V330.886Z" fill="url(#paint43_linear_122_130)" fill-opacity="0.6"/>
<path d="M208.142 354.637H210.897V355.738H203.757V354.637H206.943V342.957L203.906 344.973L203.382 344.038L207.13 341.461H208.142V354.637Z" fill="url(#paint44_linear_122_130)" fill-opacity="0.6"/>
<path d="M207.018 365.004C208.355 365.004 209.367 365.635 210.054 366.895C210.754 368.142 211.104 369.957 211.104 372.34C211.104 374.723 210.754 376.545 210.054 377.806C209.367 379.067 208.355 379.697 207.018 379.697C205.693 379.697 204.681 379.067 203.981 377.806C203.282 376.545 202.932 374.723 202.932 372.34C202.932 369.971 203.282 368.156 203.981 366.895C204.681 365.635 205.693 365.004 207.018 365.004ZM204.263 372.34C204.263 374.031 204.4 375.354 204.675 376.31L208.836 367.103C208.398 366.452 207.792 366.126 207.018 366.126C206.156 366.126 205.481 366.639 204.994 367.664C204.506 368.676 204.263 370.234 204.263 372.34ZM207.018 378.554C207.892 378.554 208.573 378.049 209.061 377.037C209.548 376.012 209.792 374.446 209.792 372.34C209.792 370.553 209.635 369.168 209.323 368.184L205.162 377.474C205.612 378.194 206.231 378.554 207.018 378.554Z" fill="url(#paint45_linear_122_130)" fill-opacity="0.6"/>
<path d="M207.018 388.755C208.355 388.755 209.367 389.386 210.054 390.646C210.754 391.893 211.104 393.708 211.104 396.091C211.104 398.474 210.754 400.296 210.054 401.557C209.367 402.818 208.355 403.448 207.018 403.448C205.693 403.448 204.681 402.818 203.981 401.557C203.282 400.296 202.932 398.474 202.932 396.091C202.932 393.722 203.282 391.907 203.981 390.646C204.681 389.386 205.693 388.755 207.018 388.755ZM204.263 396.091C204.263 397.782 204.4 399.105 204.675 400.061L208.836 390.854C208.398 390.203 207.792 389.878 207.018 389.878C206.156 389.878 205.481 390.39 204.994 391.415C204.506 392.427 204.263 393.985 204.263 396.091ZM207.018 402.305C207.892 402.305 208.573 401.8 209.061 400.788C209.548 399.763 209.792 398.197 209.792 396.091C209.792 394.304 209.635 392.919 209.323 391.935L205.162 401.225C205.612 401.945 206.231 402.305 207.018 402.305Z" fill="url(#paint46_linear_122_130)" fill-opacity="0.6"/>
<g opacity="0.6">
<path d="M947.787 -30C949.062 -30 950.028 -29.395 950.683 -28.1851C951.351 -26.9885 951.685 -25.2468 951.685 -22.9599C951.685 -20.673 951.351 -18.9246 950.683 -17.7147C950.028 -16.5048 949.062 -15.8998 947.787 -15.8998C946.523 -15.8998 945.558 -16.5048 944.89 -17.7147C944.222 -18.9246 943.889 -20.673 943.889 -22.9599C943.889 -25.2335 944.222 -26.9752 944.89 -28.1851C945.558 -29.395 946.523 -30 947.787 -30ZM945.158 -22.9599C945.158 -21.3378 945.289 -20.068 945.552 -19.1506L949.521 -27.9857C949.104 -28.6106 948.526 -28.923 947.787 -28.923C946.964 -28.923 946.32 -28.4311 945.856 -27.4472C945.391 -26.4766 945.158 -24.9808 945.158 -22.9599ZM947.787 -16.9967C948.621 -16.9967 949.271 -17.482 949.736 -18.4526C950.201 -19.4365 950.433 -20.9389 950.433 -22.9599C950.433 -24.675 950.284 -26.0046 949.986 -26.9486L946.016 -18.0338C946.446 -17.3424 947.036 -16.9967 947.787 -16.9967Z" fill="url(#paint47_linear_122_130)"/>
<path d="M948.86 5.63655H951.488V6.69356H944.675V5.63655H947.715V-5.57181L944.818 -3.63727L944.318 -4.53474L947.894 -7.00776H948.86V5.63655Z" fill="url(#paint48_linear_122_130)"/>
<path d="M947.787 15.5856C949.062 15.5856 950.028 16.1906 950.683 17.4005C951.351 18.5971 951.685 20.3389 951.685 22.6257C951.685 24.9126 951.351 26.661 950.683 27.8709C950.028 29.0808 949.062 29.6858 947.787 29.6858C946.523 29.6858 945.558 29.0808 944.89 27.8709C944.222 26.661 943.889 24.9126 943.889 22.6257C943.889 20.3522 944.222 18.6104 944.89 17.4005C945.558 16.1906 946.523 15.5856 947.787 15.5856ZM945.158 22.6257C945.158 24.2478 945.289 25.5176 945.552 26.435L949.521 17.5999C949.104 16.975 948.526 16.6626 947.787 16.6626C946.964 16.6626 946.32 17.1545 945.856 18.1384C945.391 19.109 945.158 20.6048 945.158 22.6257ZM947.787 28.5889C948.621 28.5889 949.271 28.1036 949.736 27.133C950.201 26.1491 950.433 24.6467 950.433 22.6257C950.433 20.9106 950.284 19.581 949.986 18.637L946.016 27.5518C946.446 28.2432 947.036 28.5889 947.787 28.5889Z" fill="url(#paint49_linear_122_130)"/>
<path d="M948.86 51.2221H951.488V52.2792H944.675V51.2221H947.715V40.0138L944.818 41.9483L944.318 41.0509L947.894 38.5778H948.86V51.2221Z" fill="url(#paint50_linear_122_130)"/>
<path d="M948.86 74.015H951.488V75.072H944.675V74.015H947.715V62.8066L944.818 64.7411L944.318 63.8437L947.894 61.3706H948.86V74.015Z" fill="url(#paint51_linear_122_130)"/>
<path d="M947.787 83.964C949.062 83.964 950.028 84.569 950.683 85.7789C951.351 86.9755 951.685 88.7173 951.685 91.0041C951.685 93.291 951.351 95.0394 950.683 96.2493C950.028 97.4593 949.062 98.0642 947.787 98.0642C946.523 98.0642 945.558 97.4593 944.89 96.2493C944.222 95.0394 943.889 93.291 943.889 91.0041C943.889 88.7306 944.222 86.9888 944.89 85.7789C945.558 84.569 946.523 83.964 947.787 83.964ZM945.158 91.0041C945.158 92.6262 945.289 93.896 945.552 94.8134L949.521 85.9783C949.104 85.3534 948.526 85.041 947.787 85.041C946.964 85.041 946.32 85.5329 945.856 86.5168C945.391 87.4874 945.158 88.9832 945.158 91.0041ZM947.787 96.9673C948.621 96.9673 949.271 96.482 949.736 95.5114C950.201 94.5275 950.433 93.0251 950.433 91.0041C950.433 89.289 950.284 87.9594 949.986 87.0154L946.016 95.9302C946.446 96.6216 947.036 96.9673 947.787 96.9673Z" fill="url(#paint52_linear_122_130)"/>
<path d="M948.86 119.601H951.488V120.658H944.675V119.601H947.715V108.392L944.818 110.327L944.318 109.429L947.894 106.956H948.86V119.601Z" fill="url(#paint53_linear_122_130)"/>
<path d="M947.787 129.55C949.062 129.55 950.028 130.155 950.683 131.365C951.351 132.561 951.685 134.303 951.685 136.59C951.685 138.877 951.351 140.625 950.683 141.835C950.028 143.045 949.062 143.65 947.787 143.65C946.523 143.65 945.558 143.045 944.89 141.835C944.222 140.625 943.889 138.877 943.889 136.59C943.889 134.316 944.222 132.574 944.89 131.365C945.558 130.155 946.523 129.55 947.787 129.55ZM945.158 136.59C945.158 138.212 945.289 139.482 945.552 140.399L949.521 131.564C949.104 130.939 948.526 130.627 947.787 130.627C946.964 130.627 946.32 131.119 945.856 132.102C945.391 133.073 945.158 134.569 945.158 136.59ZM947.787 142.553C948.621 142.553 949.271 142.068 949.736 141.097C950.201 140.113 950.433 138.611 950.433 136.59C950.433 134.875 950.284 133.545 949.986 132.601L946.016 141.516C946.446 142.207 947.036 142.553 947.787 142.553Z" fill="url(#paint54_linear_122_130)"/>
<path d="M947.787 152.342C949.062 152.342 950.028 152.947 950.683 154.157C951.351 155.354 951.685 157.096 951.685 159.383C951.685 161.669 951.351 163.418 950.683 164.628C950.028 165.838 949.062 166.443 947.787 166.443C946.523 166.443 945.558 165.838 944.89 164.628C944.222 163.418 943.889 161.669 943.889 159.383C943.889 157.109 944.222 155.367 944.89 154.157C945.558 152.947 946.523 152.342 947.787 152.342ZM945.158 159.383C945.158 161.005 945.289 162.274 945.552 163.192L949.521 154.357C949.104 153.732 948.526 153.419 947.787 153.419C946.964 153.419 946.32 153.911 945.856 154.895C945.391 155.866 945.158 157.362 945.158 159.383ZM947.787 165.346C948.621 165.346 949.271 164.86 949.736 163.89C950.201 162.906 950.433 161.404 950.433 159.383C950.433 157.667 950.284 156.338 949.986 155.394L946.016 164.309C946.446 165 947.036 165.346 947.787 165.346Z" fill="url(#paint55_linear_122_130)"/>
<path d="M948.86 187.979H951.488V189.036H944.675V187.979H947.715V176.771L944.818 178.705L944.318 177.808L947.894 175.335H948.86V187.979Z" fill="url(#paint56_linear_122_130)"/>
<path d="M947.787 197.928C949.062 197.928 950.028 198.533 950.683 199.743C951.351 200.94 951.685 202.681 951.685 204.968C951.685 207.255 951.351 209.003 950.683 210.213C950.028 211.423 949.062 212.028 947.787 212.028C946.523 212.028 945.558 211.423 944.89 210.213C944.222 209.003 943.889 207.255 943.889 204.968C943.889 202.695 944.222 200.953 944.89 199.743C945.558 198.533 946.523 197.928 947.787 197.928ZM945.158 204.968C945.158 206.59 945.289 207.86 945.552 208.777L949.521 199.942C949.104 199.317 948.526 199.005 947.787 199.005C946.964 199.005 946.32 199.497 945.856 200.481C945.391 201.451 945.158 202.947 945.158 204.968ZM947.787 210.931C948.621 210.931 949.271 210.446 949.736 209.475C950.201 208.492 950.433 206.989 950.433 204.968C950.433 203.253 950.284 201.923 949.986 200.979L946.016 209.894C946.446 210.586 947.036 210.931 947.787 210.931Z" fill="url(#paint57_linear_122_130)"/>
<path d="M948.86 233.565H951.488V234.622H944.675V233.565H947.715V222.356L944.818 224.291L944.318 223.393L947.894 220.92H948.86V233.565Z" fill="url(#paint58_linear_122_130)"/>
<path d="M948.86 256.357H951.488V257.414H944.675V256.357H947.715V245.149L944.818 247.084L944.318 246.186L947.894 243.713H948.86V256.357Z" fill="url(#paint59_linear_122_130)"/>
<path d="M980.994 15.5856C982.27 15.5856 983.235 16.1906 983.891 17.4005C984.558 18.5971 984.892 20.3389 984.892 22.6257C984.892 24.9126 984.558 26.661 983.891 27.8709C983.235 29.0808 982.27 29.6858 980.994 29.6858C979.731 29.6858 978.765 29.0808 978.097 27.8709C977.43 26.661 977.096 24.9126 977.096 22.6257C977.096 20.3522 977.43 18.6104 978.097 17.4005C978.765 16.1906 979.731 15.5856 980.994 15.5856ZM978.366 22.6257C978.366 24.2478 978.497 25.5176 978.759 26.435L982.729 17.5999C982.311 16.975 981.733 16.6626 980.994 16.6626C980.172 16.6626 979.528 17.1545 979.063 18.1384C978.598 19.109 978.366 20.6048 978.366 22.6257ZM980.994 28.5889C981.829 28.5889 982.478 28.1036 982.943 27.133C983.408 26.1491 983.641 24.6467 983.641 22.6257C983.641 20.9106 983.492 19.581 983.194 18.637L979.224 27.5518C979.653 28.2432 980.243 28.5889 980.994 28.5889Z" fill="url(#paint60_linear_122_130)"/>
<path d="M982.067 51.2221H984.696V52.2792H977.883V51.2221H980.923V40.0138L978.026 41.9483L977.525 41.0509L981.101 38.5778H982.067V51.2221Z" fill="url(#paint61_linear_122_130)"/>
<path d="M980.994 61.1712C982.27 61.1712 983.235 61.7762 983.891 62.9861C984.558 64.1827 984.892 65.9245 984.892 68.2113C984.892 70.4982 984.558 72.2466 983.891 73.4565C983.235 74.6664 982.27 75.2714 980.994 75.2714C979.731 75.2714 978.765 74.6664 978.097 73.4565C977.43 72.2466 977.096 70.4982 977.096 68.2113C977.096 65.9378 977.43 64.196 978.097 62.9861C978.765 61.7762 979.731 61.1712 980.994 61.1712ZM978.366 68.2113C978.366 69.8334 978.497 71.1032 978.759 72.0206L982.729 63.1855C982.311 62.5606 981.733 62.2482 980.994 62.2482C980.172 62.2482 979.528 62.7401 979.063 63.724C978.598 64.6946 978.366 66.1904 978.366 68.2113ZM980.994 74.1745C981.829 74.1745 982.478 73.6892 982.943 72.7186C983.408 71.7347 983.641 70.2323 983.641 68.2113C983.641 66.4962 983.492 65.1666 983.194 64.2226L979.224 73.1374C979.653 73.8288 980.243 74.1745 980.994 74.1745Z" fill="url(#paint62_linear_122_130)"/>
<path d="M980.994 83.964C982.27 83.964 983.235 84.569 983.891 85.7789C984.558 86.9755 984.892 88.7173 984.892 91.0041C984.892 93.291 984.558 95.0394 983.891 96.2493C983.235 97.4593 982.27 98.0642 980.994 98.0642C979.731 98.0642 978.765 97.4593 978.097 96.2493C977.43 95.0394 977.096 93.291 977.096 91.0041C977.096 88.7306 977.43 86.9888 978.097 85.7789C978.765 84.569 979.731 83.964 980.994 83.964ZM978.366 91.0041C978.366 92.6262 978.497 93.896 978.759 94.8134L982.729 85.9783C982.311 85.3534 981.733 85.041 980.994 85.041C980.172 85.041 979.528 85.5329 979.063 86.5168C978.598 87.4874 978.366 88.9832 978.366 91.0041ZM980.994 96.9673C981.829 96.9673 982.478 96.482 982.943 95.5114C983.408 94.5275 983.641 93.0251 983.641 91.0041C983.641 89.289 983.492 87.9594 983.194 87.0154L979.224 95.9302C979.653 96.6216 980.243 96.9673 980.994 96.9673Z" fill="url(#paint63_linear_122_130)"/>
<path d="M982.067 119.601H984.696V120.658H977.883V119.601H980.923V108.392L978.026 110.327L977.525 109.429L981.101 106.956H982.067V119.601Z" fill="url(#paint64_linear_122_130)"/>
<path d="M980.994 129.55C982.27 129.55 983.235 130.155 983.891 131.365C984.558 132.561 984.892 134.303 984.892 136.59C984.892 138.877 984.558 140.625 983.891 141.835C983.235 143.045 982.27 143.65 980.994 143.65C979.731 143.65 978.765 143.045 978.097 141.835C977.43 140.625 977.096 138.877 977.096 136.59C977.096 134.316 977.43 132.574 978.097 131.365C978.765 130.155 979.731 129.55 980.994 129.55ZM978.366 136.59C978.366 138.212 978.497 139.482 978.759 140.399L982.729 131.564C982.311 130.939 981.733 130.627 980.994 130.627C980.172 130.627 979.528 131.119 979.063 132.102C978.598 133.073 978.366 134.569 978.366 136.59ZM980.994 142.553C981.829 142.553 982.478 142.068 982.943 141.097C983.408 140.113 983.641 138.611 983.641 136.59C983.641 134.875 983.492 133.545 983.194 132.601L979.224 141.516C979.653 142.207 980.243 142.553 980.994 142.553Z" fill="url(#paint65_linear_122_130)"/>
<path d="M982.067 165.186H984.696V166.243H977.883V165.186H980.923V153.978L978.026 155.912L977.525 155.015L981.101 152.542H982.067V165.186Z" fill="url(#paint66_linear_122_130)"/>
<path d="M980.994 175.135C982.27 175.135 983.235 175.74 983.891 176.95C984.558 178.147 984.892 179.888 984.892 182.175C984.892 184.462 984.558 186.211 983.891 187.421C983.235 188.63 982.27 189.235 980.994 189.235C979.731 189.235 978.765 188.63 978.097 187.421C977.43 186.211 977.096 184.462 977.096 182.175C977.096 179.902 977.43 178.16 978.097 176.95C978.765 175.74 979.731 175.135 980.994 175.135ZM978.366 182.175C978.366 183.797 978.497 185.067 978.759 185.985L982.729 177.15C982.311 176.525 981.733 176.212 980.994 176.212C980.172 176.212 979.528 176.704 979.063 177.688C978.598 178.659 978.366 180.154 978.366 182.175ZM980.994 188.139C981.829 188.139 982.478 187.653 982.943 186.683C983.408 185.699 983.641 184.196 983.641 182.175C983.641 180.46 983.492 179.131 983.194 178.187L979.224 187.101C979.653 187.793 980.243 188.139 980.994 188.139Z" fill="url(#paint67_linear_122_130)"/>
<path d="M980.994 197.928C982.27 197.928 983.235 198.533 983.891 199.743C984.558 200.94 984.892 202.681 984.892 204.968C984.892 207.255 984.558 209.003 983.891 210.213C983.235 211.423 982.27 212.028 980.994 212.028C979.731 212.028 978.765 211.423 978.097 210.213C977.43 209.003 977.096 207.255 977.096 204.968C977.096 202.695 977.43 200.953 978.097 199.743C978.765 198.533 979.731 197.928 980.994 197.928ZM978.366 204.968C978.366 206.59 978.497 207.86 978.759 208.777L982.729 199.942C982.311 199.317 981.733 199.005 980.994 199.005C980.172 199.005 979.528 199.497 979.063 200.481C978.598 201.451 978.366 202.947 978.366 204.968ZM980.994 210.931C981.829 210.931 982.478 210.446 982.943 209.475C983.408 208.492 983.641 206.989 983.641 204.968C983.641 203.253 983.492 201.923 983.194 200.979L979.224 209.894C979.653 210.586 980.243 210.931 980.994 210.931Z" fill="url(#paint68_linear_122_130)"/>
<path d="M982.067 233.565H984.696V234.622H977.883V233.565H980.923V222.356L978.026 224.291L977.525 223.393L981.101 220.92H982.067V233.565Z" fill="url(#paint69_linear_122_130)"/>
<path d="M980.994 243.514C982.27 243.514 983.235 244.119 983.891 245.329C984.558 246.525 984.892 248.267 984.892 250.554C984.892 252.841 984.558 254.589 983.891 255.799C983.235 257.009 982.27 257.614 980.994 257.614C979.731 257.614 978.765 257.009 978.097 255.799C977.43 254.589 977.096 252.841 977.096 250.554C977.096 248.28 977.43 246.538 978.097 245.329C978.765 244.119 979.731 243.514 980.994 243.514ZM978.366 250.554C978.366 252.176 978.497 253.446 978.759 254.363L982.729 245.528C982.311 244.903 981.733 244.591 980.994 244.591C980.172 244.591 979.528 245.083 979.063 246.066C978.598 247.037 978.366 248.533 978.366 250.554ZM980.994 256.517C981.829 256.517 982.478 256.032 982.943 255.061C983.408 254.077 983.641 252.575 983.641 250.554C983.641 248.839 983.492 247.509 983.194 246.565L979.224 255.48C979.653 256.171 980.243 256.517 980.994 256.517Z" fill="url(#paint70_linear_122_130)"/>
<path d="M982.067 279.15H984.696V280.207H977.883V279.15H980.923V267.942L978.026 269.876L977.525 268.979L981.101 266.506H982.067V279.15Z" fill="url(#paint71_linear_122_130)"/>
<path d="M982.067 301.943H984.696V303H977.883V301.943H980.923V290.735L978.026 292.669L977.525 291.772L981.101 289.299H982.067V301.943Z" fill="url(#paint72_linear_122_130)"/>
<path d="M931.183 38.3784C932.458 38.3784 933.424 38.9834 934.08 40.1933C934.747 41.3899 935.081 43.1317 935.081 45.4185C935.081 47.7054 934.747 49.4538 934.08 50.6637C933.424 51.8736 932.458 52.4786 931.183 52.4786C929.919 52.4786 928.954 51.8736 928.286 50.6637C927.619 49.4538 927.285 47.7054 927.285 45.4185C927.285 43.145 927.619 41.4032 928.286 40.1933C928.954 38.9834 929.919 38.3784 931.183 38.3784ZM928.554 45.4185C928.554 47.0406 928.686 48.3104 928.948 49.2278L932.917 40.3927C932.5 39.7678 931.922 39.4554 931.183 39.4554C930.36 39.4554 929.717 39.9473 929.252 40.9312C928.787 41.9018 928.554 43.3976 928.554 45.4185ZM931.183 51.3817C932.017 51.3817 932.667 50.8964 933.132 49.9258C933.597 48.9419 933.829 47.4395 933.829 45.4185C933.829 43.7034 933.68 42.3738 933.382 41.4298L929.413 50.3446C929.842 51.036 930.432 51.3817 931.183 51.3817Z" fill="url(#paint73_linear_122_130)"/>
<path d="M931.183 61.1712C932.458 61.1712 933.424 61.7762 934.08 62.9861C934.747 64.1827 935.081 65.9245 935.081 68.2113C935.081 70.4982 934.747 72.2466 934.08 73.4565C933.424 74.6664 932.458 75.2714 931.183 75.2714C929.919 75.2714 928.954 74.6664 928.286 73.4565C927.619 72.2466 927.285 70.4982 927.285 68.2113C927.285 65.9378 927.619 64.196 928.286 62.9861C928.954 61.7762 929.919 61.1712 931.183 61.1712ZM928.554 68.2113C928.554 69.8334 928.686 71.1032 928.948 72.0206L932.917 63.1855C932.5 62.5606 931.922 62.2482 931.183 62.2482C930.36 62.2482 929.717 62.7401 929.252 63.724C928.787 64.6946 928.554 66.1904 928.554 68.2113ZM931.183 74.1745C932.017 74.1745 932.667 73.6892 933.132 72.7186C933.597 71.7347 933.829 70.2323 933.829 68.2113C933.829 66.4962 933.68 65.1666 933.382 64.2226L929.413 73.1374C929.842 73.8288 930.432 74.1745 931.183 74.1745Z" fill="url(#paint74_linear_122_130)"/>
<path d="M932.256 96.8078H934.884V97.8648H928.072V96.8078H931.111V85.5994L928.215 87.5339L927.714 86.6365L931.29 84.1635H932.256V96.8078Z" fill="url(#paint75_linear_122_130)"/>
<path d="M931.183 106.757C932.458 106.757 933.424 107.362 934.08 108.572C934.747 109.768 935.081 111.51 935.081 113.797C935.081 116.084 934.747 117.832 934.08 119.042C933.424 120.252 932.458 120.857 931.183 120.857C929.919 120.857 928.954 120.252 928.286 119.042C927.619 117.832 927.285 116.084 927.285 113.797C927.285 111.523 927.619 109.782 928.286 108.572C928.954 107.362 929.919 106.757 931.183 106.757ZM928.554 113.797C928.554 115.419 928.686 116.689 928.948 117.606L932.917 108.771C932.5 108.146 931.922 107.834 931.183 107.834C930.36 107.834 929.717 108.326 929.252 109.31C928.787 110.28 928.554 111.776 928.554 113.797ZM931.183 119.76C932.017 119.76 932.667 119.275 933.132 118.304C933.597 117.32 933.829 115.818 933.829 113.797C933.829 112.082 933.68 110.752 933.382 109.808L929.413 118.723C929.842 119.414 930.432 119.76 931.183 119.76Z" fill="url(#paint76_linear_122_130)"/>
<path d="M932.256 142.393H934.884V143.45H928.072V142.393H931.111V131.185L928.215 133.12L927.714 132.222L931.29 129.749H932.256V142.393Z" fill="url(#paint77_linear_122_130)"/>
<path d="M932.256 165.186H934.884V166.243H928.072V165.186H931.111V153.978L928.215 155.912L927.714 155.015L931.29 152.542H932.256V165.186Z" fill="url(#paint78_linear_122_130)"/>
<path d="M965.463 5.63655H968.092V6.69356H961.279V5.63655H964.319V-5.57181L961.422 -3.63727L960.922 -4.53474L964.498 -7.00776H965.463V5.63655Z" fill="url(#paint79_linear_122_130)"/>
<path d="M964.39 15.5856C965.666 15.5856 966.632 16.1906 967.287 17.4005C967.955 18.5971 968.288 20.3389 968.288 22.6257C968.288 24.9126 967.955 26.661 967.287 27.8709C966.632 29.0808 965.666 29.6858 964.39 29.6858C963.127 29.6858 962.161 29.0808 961.494 27.8709C960.826 26.661 960.492 24.9126 960.492 22.6257C960.492 20.3522 960.826 18.6104 961.494 17.4005C962.161 16.1906 963.127 15.5856 964.39 15.5856ZM961.762 22.6257C961.762 24.2478 961.893 25.5176 962.155 26.435L966.125 17.5999C965.708 16.975 965.13 16.6626 964.39 16.6626C963.568 16.6626 962.924 17.1545 962.459 18.1384C961.994 19.109 961.762 20.6048 961.762 22.6257ZM964.39 28.5889C965.225 28.5889 965.875 28.1036 966.339 27.133C966.804 26.1491 967.037 24.6467 967.037 22.6257C967.037 20.9106 966.888 19.581 966.59 18.637L962.62 27.5518C963.049 28.2432 963.639 28.5889 964.39 28.5889Z" fill="url(#paint80_linear_122_130)"/>
<path d="M965.463 51.2221H968.092V52.2792H961.279V51.2221H964.319V40.0138L961.422 41.9483L960.922 41.0509L964.498 38.5778H965.463V51.2221Z" fill="url(#paint81_linear_122_130)"/>
<path d="M965.463 74.015H968.092V75.072H961.279V74.015H964.319V62.8066L961.422 64.7411L960.922 63.8437L964.498 61.3706H965.463V74.015Z" fill="url(#paint82_linear_122_130)"/>
<path d="M964.39 83.964C965.666 83.964 966.632 84.569 967.287 85.7789C967.955 86.9755 968.288 88.7173 968.288 91.0041C968.288 93.291 967.955 95.0394 967.287 96.2493C966.632 97.4593 965.666 98.0642 964.39 98.0642C963.127 98.0642 962.161 97.4593 961.494 96.2493C960.826 95.0394 960.492 93.291 960.492 91.0041C960.492 88.7306 960.826 86.9888 961.494 85.7789C962.161 84.569 963.127 83.964 964.39 83.964ZM961.762 91.0041C961.762 92.6262 961.893 93.896 962.155 94.8134L966.125 85.9783C965.708 85.3534 965.13 85.041 964.39 85.041C963.568 85.041 962.924 85.5329 962.459 86.5168C961.994 87.4874 961.762 88.9832 961.762 91.0041ZM964.39 96.9673C965.225 96.9673 965.875 96.482 966.339 95.5114C966.804 94.5275 967.037 93.0251 967.037 91.0041C967.037 89.289 966.888 87.9594 966.59 87.0154L962.62 95.9302C963.049 96.6216 963.639 96.9673 964.39 96.9673Z" fill="url(#paint83_linear_122_130)"/>
<path d="M965.463 119.601H968.092V120.658H961.279V119.601H964.319V108.392L961.422 110.327L960.922 109.429L964.498 106.956H965.463V119.601Z" fill="url(#paint84_linear_122_130)"/>
<path d="M965.463 142.393H968.092V143.45H961.279V142.393H964.319V131.185L961.422 133.12L960.922 132.222L964.498 129.749H965.463V142.393Z" fill="url(#paint85_linear_122_130)"/>
<path d="M964.39 152.342C965.666 152.342 966.632 152.947 967.287 154.157C967.955 155.354 968.288 157.096 968.288 159.383C968.288 161.669 967.955 163.418 967.287 164.628C966.632 165.838 965.666 166.443 964.39 166.443C963.127 166.443 962.161 165.838 961.494 164.628C960.826 163.418 960.492 161.669 960.492 159.383C960.492 157.109 960.826 155.367 961.494 154.157C962.161 152.947 963.127 152.342 964.39 152.342ZM961.762 159.383C961.762 161.005 961.893 162.274 962.155 163.192L966.125 154.357C965.708 153.732 965.13 153.419 964.39 153.419C963.568 153.419 962.924 153.911 962.459 154.895C961.994 155.866 961.762 157.362 961.762 159.383ZM964.39 165.346C965.225 165.346 965.875 164.86 966.339 163.89C966.804 162.906 967.037 161.404 967.037 159.383C967.037 157.667 966.888 156.338 966.59 155.394L962.62 164.309C963.049 165 963.639 165.346 964.39 165.346Z" fill="url(#paint86_linear_122_130)"/>
<path d="M965.463 187.979H968.092V189.036H961.279V187.979H964.319V176.771L961.422 178.705L960.922 177.808L964.498 175.335H965.463V187.979Z" fill="url(#paint87_linear_122_130)"/>
<path d="M964.39 197.928C965.666 197.928 966.632 198.533 967.287 199.743C967.955 200.94 968.288 202.681 968.288 204.968C968.288 207.255 967.955 209.003 967.287 210.213C966.632 211.423 965.666 212.028 964.39 212.028C963.127 212.028 962.161 211.423 961.494 210.213C960.826 209.003 960.492 207.255 960.492 204.968C960.492 202.695 960.826 200.953 961.494 199.743C962.161 198.533 963.127 197.928 964.39 197.928ZM961.762 204.968C961.762 206.59 961.893 207.86 962.155 208.777L966.125 199.942C965.708 199.317 965.13 199.005 964.39 199.005C963.568 199.005 962.924 199.497 962.459 200.481C961.994 201.451 961.762 202.947 961.762 204.968ZM964.39 210.931C965.225 210.931 965.875 210.446 966.339 209.475C966.804 208.492 967.037 206.989 967.037 204.968C967.037 203.253 966.888 201.923 966.59 200.979L962.62 209.894C963.049 210.586 963.639 210.931 964.39 210.931Z" fill="url(#paint88_linear_122_130)"/>
<path d="M997.598 -7.2072C998.873 -7.2072 999.839 -6.60224 1000.49 -5.39232C1001.16 -4.1957 1001.5 -2.45395 1001.5 -0.167072C1001.5 2.11981 1001.16 3.86821 1000.49 5.07812C999.839 6.28804 998.873 6.893 997.598 6.893C996.334 6.893 995.369 6.28804 994.701 5.07812C994.034 3.86821 993.7 2.11981 993.7 -0.167072C993.7 -2.44065 994.034 -4.1824 994.701 -5.39232C995.369 -6.60224 996.334 -7.2072 997.598 -7.2072ZM994.969 -0.167072C994.969 1.45502 995.101 2.72477 995.363 3.64218L999.332 -5.19288C998.915 -5.81779 998.337 -6.13024 997.598 -6.13024C996.775 -6.13024 996.132 -5.63829 995.667 -4.6544C995.202 -3.68381 994.969 -2.18803 994.969 -0.167072ZM997.598 5.7961C998.432 5.7961 999.082 5.3108 999.547 4.34021C1000.01 3.35632 1000.24 1.85389 1000.24 -0.167072C1000.24 -1.88223 1000.1 -3.21181 999.797 -4.15581L995.828 4.75902C996.257 5.4504 996.847 5.7961 997.598 5.7961Z" fill="url(#paint89_linear_122_130)"/>
<path d="M998.671 28.4293H1001.3V29.4864H994.487V28.4293H997.526V17.221L994.63 19.1555L994.129 18.2581L997.705 15.785H998.671V28.4293Z" fill="url(#paint90_linear_122_130)"/>
<path d="M998.671 51.2221H1001.3V52.2792H994.487V51.2221H997.526V40.0138L994.63 41.9483L994.129 41.0509L997.705 38.5778H998.671V51.2221Z" fill="url(#paint91_linear_122_130)"/>
<path d="M997.598 61.1712C998.873 61.1712 999.839 61.7762 1000.49 62.9861C1001.16 64.1827 1001.5 65.9245 1001.5 68.2113C1001.5 70.4982 1001.16 72.2466 1000.49 73.4565C999.839 74.6664 998.873 75.2714 997.598 75.2714C996.334 75.2714 995.369 74.6664 994.701 73.4565C994.034 72.2466 993.7 70.4982 993.7 68.2113C993.7 65.9378 994.034 64.196 994.701 62.9861C995.369 61.7762 996.334 61.1712 997.598 61.1712ZM994.969 68.2113C994.969 69.8334 995.101 71.1032 995.363 72.0206L999.332 63.1855C998.915 62.5606 998.337 62.2482 997.598 62.2482C996.775 62.2482 996.132 62.7401 995.667 63.724C995.202 64.6946 994.969 66.1904 994.969 68.2113ZM997.598 74.1745C998.432 74.1745 999.082 73.6892 999.547 72.7186C1000.01 71.7347 1000.24 70.2323 1000.24 68.2113C1000.24 66.4962 1000.1 65.1666 999.797 64.2226L995.828 73.1374C996.257 73.8288 996.847 74.1745 997.598 74.1745Z" fill="url(#paint92_linear_122_130)"/>
<path d="M997.598 83.964C998.873 83.964 999.839 84.569 1000.49 85.7789C1001.16 86.9755 1001.5 88.7173 1001.5 91.0041C1001.5 93.291 1001.16 95.0394 1000.49 96.2493C999.839 97.4593 998.873 98.0642 997.598 98.0642C996.334 98.0642 995.369 97.4593 994.701 96.2493C994.034 95.0394 993.7 93.291 993.7 91.0041C993.7 88.7306 994.034 86.9888 994.701 85.7789C995.369 84.569 996.334 83.964 997.598 83.964ZM994.969 91.0041C994.969 92.6262 995.101 93.896 995.363 94.8134L999.332 85.9783C998.915 85.3534 998.337 85.041 997.598 85.041C996.775 85.041 996.132 85.5329 995.667 86.5168C995.202 87.4874 994.969 88.9832 994.969 91.0041ZM997.598 96.9673C998.432 96.9673 999.082 96.482 999.547 95.5114C1000.01 94.5275 1000.24 93.0251 1000.24 91.0041C1000.24 89.289 1000.1 87.9594 999.797 87.0154L995.828 95.9302C996.257 96.6216 996.847 96.9673 997.598 96.9673Z" fill="url(#paint93_linear_122_130)"/>
</g>
</g>
<defs>
<filter id="filter0_f_122_130" x="-416.19" y="-716.19" width="1999.38" height="1500.38" filterUnits="userSpaceOnUse" color-interpolation-filters="sRGB">
<feFlood flood-opacity="0" result="BackgroundImageFix"/>
<feBlend mode="normal" in="SourceGraphic" in2="BackgroundImageFix" result="shape"/>
<feGaussianBlur stdDeviation="200.095" result="effect1_foregroundBlur_122_130"/>
</filter>
<linearGradient id="paint0_linear_122_130" x1="172.21" y1="270" x2="172.21" y2="581.381" gradientUnits="userSpaceOnUse">
<stop stop-color="#F7DD43"/>
<stop offset="1" stop-color="#F7DD43" stop-opacity="0"/>
</linearGradient>
<linearGradient id="paint1_linear_122_130" x1="172.21" y1="270" x2="172.21" y2="581.381" gradientUnits="userSpaceOnUse">
<stop stop-color="#F7DD43"/>
<stop offset="1" stop-color="#F7DD43" stop-opacity="0"/>
</linearGradient>
<linearGradient id="paint2_linear_122_130" x1="172.21" y1="270" x2="172.21" y2="581.381" gradientUnits="userSpaceOnUse">
<stop stop-color="#F7DD43"/>
<stop offset="1" stop-color="#F7DD43" stop-opacity="0"/>
</linearGradient>
<linearGradient id="paint3_linear_122_130" x1="172.21" y1="270" x2="172.21" y2="581.381" gradientUnits="userSpaceOnUse">
<stop stop-color="#F7DD43"/>
<stop offset="1" stop-color="#F7DD43" stop-opacity="0"/>
</linearGradient>
<linearGradient id="paint4_linear_122_130" x1="172.21" y1="270" x2="172.21" y2="581.381" gradientUnits="userSpaceOnUse">
<stop stop-color="#F7DD43"/>
<stop offset="1" stop-color="#F7DD43" stop-opacity="0"/>
</linearGradient>
<linearGradient id="paint5_linear_122_130" x1="172.21" y1="270" x2="172.21" y2="581.381" gradientUnits="userSpaceOnUse">
<stop stop-color="#F7DD43"/>
<stop offset="1" stop-color="#F7DD43" stop-opacity="0"/>
</linearGradient>
<linearGradient id="paint6_linear_122_130" x1="172.21" y1="270" x2="172.21" y2="581.381" gradientUnits="userSpaceOnUse">
<stop stop-color="#F7DD43"/>
<stop offset="1" stop-color="#F7DD43" stop-opacity="0"/>
</linearGradient>
<linearGradient id="paint7_linear_122_130" x1="172.21" y1="270" x2="172.21" y2="581.381" gradientUnits="userSpaceOnUse">
<stop stop-color="#F7DD43"/>
<stop offset="1" stop-color="#F7DD43" stop-opacity="0"/>
</linearGradient>
<linearGradient id="paint8_linear_122_130" x1="172.21" y1="270" x2="172.21" y2="581.381" gradientUnits="userSpaceOnUse">
<stop stop-color="#F7DD43"/>
<stop offset="1" stop-color="#F7DD43" stop-opacity="0"/>
</linearGradient>
<linearGradient id="paint9_linear_122_130" x1="172.21" y1="270" x2="172.21" y2="581.381" gradientUnits="userSpaceOnUse">
<stop stop-color="#F7DD43"/>
<stop offset="1" stop-color="#F7DD43" stop-opacity="0"/>
</linearGradient>
<linearGradient id="paint10_linear_122_130" x1="172.21" y1="270" x2="172.21" y2="581.381" gradientUnits="userSpaceOnUse">
<stop stop-color="#F7DD43"/>
<stop offset="1" stop-color="#F7DD43" stop-opacity="0"/>
</linearGradient>
<linearGradient id="paint11_linear_122_130" x1="172.21" y1="270" x2="172.21" y2="581.381" gradientUnits="userSpaceOnUse">
<stop stop-color="#F7DD43"/>
<stop offset="1" stop-color="#F7DD43" stop-opacity="0"/>
</linearGradient>
<linearGradient id="paint12_linear_122_130" x1="172.21" y1="270" x2="172.21" y2="581.381" gradientUnits="userSpaceOnUse">
<stop stop-color="#F7DD43"/>
<stop offset="1" stop-color="#F7DD43" stop-opacity="0"/>
</linearGradient>
<linearGradient id="paint13_linear_122_130" x1="172.21" y1="270" x2="172.21" y2="581.381" gradientUnits="userSpaceOnUse">
<stop stop-color="#F7DD43"/>
<stop offset="1" stop-color="#F7DD43" stop-opacity="0"/>
</linearGradient>
<linearGradient id="paint14_linear_122_130" x1="172.21" y1="270" x2="172.21" y2="581.381" gradientUnits="userSpaceOnUse">
<stop stop-color="#F7DD43"/>
<stop offset="1" stop-color="#F7DD43" stop-opacity="0"/>
</linearGradient>
<linearGradient id="paint15_linear_122_130" x1="172.21" y1="270" x2="172.21" y2="581.381" gradientUnits="userSpaceOnUse">
<stop stop-color="#F7DD43"/>
<stop offset="1" stop-color="#F7DD43" stop-opacity="0"/>
</linearGradient>
<linearGradient id="paint16_linear_122_130" x1="172.21" y1="270" x2="172.21" y2="581.381" gradientUnits="userSpaceOnUse">
<stop stop-color="#F7DD43"/>
<stop offset="1" stop-color="#F7DD43" stop-opacity="0"/>
</linearGradient>
<linearGradient id="paint17_linear_122_130" x1="172.21" y1="270" x2="172.21" y2="581.381" gradientUnits="userSpaceOnUse">
<stop stop-color="#F7DD43"/>
<stop offset="1" stop-color="#F7DD43" stop-opacity="0"/>
</linearGradient>
<linearGradient id="paint18_linear_122_130" x1="172.21" y1="270" x2="172.21" y2="581.381" gradientUnits="userSpaceOnUse">
<stop stop-color="#F7DD43"/>
<stop offset="1" stop-color="#F7DD43" stop-opacity="0"/>
</linearGradient>
<linearGradient id="paint19_linear_122_130" x1="172.21" y1="270" x2="172.21" y2="581.381" gradientUnits="userSpaceOnUse">
<stop stop-color="#F7DD43"/>
<stop offset="1" stop-color="#F7DD43" stop-opacity="0"/>
</linearGradient>
<linearGradient id="paint20_linear_122_130" x1="172.21" y1="270" x2="172.21" y2="581.381" gradientUnits="userSpaceOnUse">
<stop stop-color="#F7DD43"/>
<stop offset="1" stop-color="#F7DD43" stop-opacity="0"/>
</linearGradient>
<linearGradient id="paint21_linear_122_130" x1="172.21" y1="270" x2="172.21" y2="581.381" gradientUnits="userSpaceOnUse">
<stop stop-color="#F7DD43"/>
<stop offset="1" stop-color="#F7DD43" stop-opacity="0"/>
</linearGradient>
<linearGradient id="paint22_linear_122_130" x1="172.21" y1="270" x2="172.21" y2="581.381" gradientUnits="userSpaceOnUse">
<stop stop-color="#F7DD43"/>
<stop offset="1" stop-color="#F7DD43" stop-opacity="0"/>
</linearGradient>
<linearGradient id="paint23_linear_122_130" x1="172.21" y1="270" x2="172.21" y2="581.381" gradientUnits="userSpaceOnUse">
<stop stop-color="#F7DD43"/>
<stop offset="1" stop-color="#F7DD43" stop-opacity="0"/>
</linearGradient>
<linearGradient id="paint24_linear_122_130" x1="172.21" y1="270" x2="172.21" y2="581.381" gradientUnits="userSpaceOnUse">
<stop stop-color="#F7DD43"/>
<stop offset="1" stop-color="#F7DD43" stop-opacity="0"/>
</linearGradient>
<linearGradient id="paint25_linear_122_130" x1="172.21" y1="270" x2="172.21" y2="581.381" gradientUnits="userSpaceOnUse">
<stop stop-color="#F7DD43"/>
<stop offset="1" stop-color="#F7DD43" stop-opacity="0"/>
</linearGradient>
<linearGradient id="paint26_linear_122_130" x1="172.21" y1="270" x2="172.21" y2="581.381" gradientUnits="userSpaceOnUse">
<stop stop-color="#F7DD43"/>
<stop offset="1" stop-color="#F7DD43" stop-opacity="0"/>
</linearGradient>
<linearGradient id="paint27_linear_122_130" x1="172.21" y1="270" x2="172.21" y2="581.381" gradientUnits="userSpaceOnUse">
<stop stop-color="#F7DD43"/>
<stop offset="1" stop-color="#F7DD43" stop-opacity="0"/>
</linearGradient>
<linearGradient id="paint28_linear_122_130" x1="172.21" y1="270" x2="172.21" y2="581.381" gradientUnits="userSpaceOnUse">
<stop stop-color="#F7DD43"/>
<stop offset="1" stop-color="#F7DD43" stop-opacity="0"/>
</linearGradient>
<linearGradient id="paint29_linear_122_130" x1="172.21" y1="270" x2="172.21" y2="581.381" gradientUnits="userSpaceOnUse">
<stop stop-color="#F7DD43"/>
<stop offset="1" stop-color="#F7DD43" stop-opacity="0"/>
</linearGradient>
<linearGradient id="paint30_linear_122_130" x1="172.21" y1="270" x2="172.21" y2="581.381" gradientUnits="userSpaceOnUse">
<stop stop-color="#F7DD43"/>
<stop offset="1" stop-color="#F7DD43" stop-opacity="0"/>
</linearGradient>
<linearGradient id="paint31_linear_122_130" x1="172.21" y1="270" x2="172.21" y2="581.381" gradientUnits="userSpaceOnUse">
<stop stop-color="#F7DD43"/>
<stop offset="1" stop-color="#F7DD43" stop-opacity="0"/>
</linearGradient>
<linearGradient id="paint32_linear_122_130" x1="172.21" y1="270" x2="172.21" y2="581.381" gradientUnits="userSpaceOnUse">
<stop stop-color="#F7DD43"/>
<stop offset="1" stop-color="#F7DD43" stop-opacity="0"/>
</linearGradient>
<linearGradient id="paint33_linear_122_130" x1="172.21" y1="270" x2="172.21" y2="581.381" gradientUnits="userSpaceOnUse">
<stop stop-color="#F7DD43"/>
<stop offset="1" stop-color="#F7DD43" stop-opacity="0"/>
</linearGradient>
<linearGradient id="paint34_linear_122_130" x1="172.21" y1="270" x2="172.21" y2="581.381" gradientUnits="userSpaceOnUse">
<stop stop-color="#F7DD43"/>
<stop offset="1" stop-color="#F7DD43" stop-opacity="0"/>
</linearGradient>
<linearGradient id="paint35_linear_122_130" x1="172.21" y1="270" x2="172.21" y2="581.381" gradientUnits="userSpaceOnUse">
<stop stop-color="#F7DD43"/>
<stop offset="1" stop-color="#F7DD43" stop-opacity="0"/>
</linearGradient>
<linearGradient id="paint36_linear_122_130" x1="172.21" y1="270" x2="172.21" y2="581.381" gradientUnits="userSpaceOnUse">
<stop stop-color="#F7DD43"/>
<stop offset="1" stop-color="#F7DD43" stop-opacity="0"/>
</linearGradient>
<linearGradient id="paint37_linear_122_130" x1="172.21" y1="270" x2="172.21" y2="581.381" gradientUnits="userSpaceOnUse">
<stop stop-color="#F7DD43"/>
<stop offset="1" stop-color="#F7DD43" stop-opacity="0"/>
</linearGradient>
<linearGradient id="paint38_linear_122_130" x1="172.21" y1="270" x2="172.21" y2="581.381" gradientUnits="userSpaceOnUse">
<stop stop-color="#F7DD43"/>
<stop offset="1" stop-color="#F7DD43" stop-opacity="0"/>
</linearGradient>
<linearGradient id="paint39_linear_122_130" x1="172.21" y1="270" x2="172.21" y2="581.381" gradientUnits="userSpaceOnUse">
<stop stop-color="#F7DD43"/>
<stop offset="1" stop-color="#F7DD43" stop-opacity="0"/>
</linearGradient>
<linearGradient id="paint40_linear_122_130" x1="172.21" y1="270" x2="172.21" y2="581.381" gradientUnits="userSpaceOnUse">
<stop stop-color="#F7DD43"/>
<stop offset="1" stop-color="#F7DD43" stop-opacity="0"/>
</linearGradient>
<linearGradient id="paint41_linear_122_130" x1="172.21" y1="270" x2="172.21" y2="581.381" gradientUnits="userSpaceOnUse">
<stop stop-color="#F7DD43"/>
<stop offset="1" stop-color="#F7DD43" stop-opacity="0"/>
</linearGradient>
<linearGradient id="paint42_linear_122_130" x1="172.21" y1="270" x2="172.21" y2="581.381" gradientUnits="userSpaceOnUse">
<stop stop-color="#F7DD43"/>
<stop offset="1" stop-color="#F7DD43" stop-opacity="0"/>
</linearGradient>
<linearGradient id="paint43_linear_122_130" x1="172.21" y1="270" x2="172.21" y2="581.381" gradientUnits="userSpaceOnUse">
<stop stop-color="#F7DD43"/>
<stop offset="1" stop-color="#F7DD43" stop-opacity="0"/>
</linearGradient>
<linearGradient id="paint44_linear_122_130" x1="172.21" y1="270" x2="172.21" y2="581.381" gradientUnits="userSpaceOnUse">
<stop stop-color="#F7DD43"/>
<stop offset="1" stop-color="#F7DD43" stop-opacity="0"/>
</linearGradient>
<linearGradient id="paint45_linear_122_130" x1="172.21" y1="270" x2="172.21" y2="581.381" gradientUnits="userSpaceOnUse">
<stop stop-color="#F7DD43"/>
<stop offset="1" stop-color="#F7DD43" stop-opacity="0"/>
</linearGradient>
<linearGradient id="paint46_linear_122_130" x1="172.21" y1="270" x2="172.21" y2="581.381" gradientUnits="userSpaceOnUse">
<stop stop-color="#F7DD43"/>
<stop offset="1" stop-color="#F7DD43" stop-opacity="0"/>
</linearGradient>
<linearGradient id="paint47_linear_122_130" x1="964.39" y1="-30" x2="964.39" y2="268.818" gradientUnits="userSpaceOnUse">
<stop stop-color="#F7DD43"/>
<stop offset="1" stop-color="#F7DD43" stop-opacity="0"/>
</linearGradient>
<linearGradient id="paint48_linear_122_130" x1="964.39" y1="-30" x2="964.39" y2="268.818" gradientUnits="userSpaceOnUse">
<stop stop-color="#F7DD43"/>
<stop offset="1" stop-color="#F7DD43" stop-opacity="0"/>
</linearGradient>
<linearGradient id="paint49_linear_122_130" x1="964.39" y1="-30" x2="964.39" y2="268.818" gradientUnits="userSpaceOnUse">
<stop stop-color="#F7DD43"/>
<stop offset="1" stop-color="#F7DD43" stop-opacity="0"/>
</linearGradient>
<linearGradient id="paint50_linear_122_130" x1="964.39" y1="-30" x2="964.39" y2="268.818" gradientUnits="userSpaceOnUse">
<stop stop-color="#F7DD43"/>
<stop offset="1" stop-color="#F7DD43" stop-opacity="0"/>
</linearGradient>
<linearGradient id="paint51_linear_122_130" x1="964.39" y1="-30" x2="964.39" y2="268.818" gradientUnits="userSpaceOnUse">
<stop stop-color="#F7DD43"/>
<stop offset="1" stop-color="#F7DD43" stop-opacity="0"/>
</linearGradient>
<linearGradient id="paint52_linear_122_130" x1="964.39" y1="-30" x2="964.39" y2="268.818" gradientUnits="userSpaceOnUse">
<stop stop-color="#F7DD43"/>
<stop offset="1" stop-color="#F7DD43" stop-opacity="0"/>
</linearGradient>
<linearGradient id="paint53_linear_122_130" x1="964.39" y1="-30" x2="964.39" y2="268.818" gradientUnits="userSpaceOnUse">
<stop stop-color="#F7DD43"/>
<stop offset="1" stop-color="#F7DD43" stop-opacity="0"/>
</linearGradient>
<linearGradient id="paint54_linear_122_130" x1="964.39" y1="-30" x2="964.39" y2="268.818" gradientUnits="userSpaceOnUse">
<stop stop-color="#F7DD43"/>
<stop offset="1" stop-color="#F7DD43" stop-opacity="0"/>
</linearGradient>
<linearGradient id="paint55_linear_122_130" x1="964.39" y1="-30" x2="964.39" y2="268.818" gradientUnits="userSpaceOnUse">
<stop stop-color="#F7DD43"/>
<stop offset="1" stop-color="#F7DD43" stop-opacity="0"/>
</linearGradient>
<linearGradient id="paint56_linear_122_130" x1="964.39" y1="-30" x2="964.39" y2="268.818" gradientUnits="userSpaceOnUse">
<stop stop-color="#F7DD43"/>
<stop offset="1" stop-color="#F7DD43" stop-opacity="0"/>
</linearGradient>
<linearGradient id="paint57_linear_122_130" x1="964.39" y1="-30" x2="964.39" y2="268.818" gradientUnits="userSpaceOnUse">
<stop stop-color="#F7DD43"/>
<stop offset="1" stop-color="#F7DD43" stop-opacity="0"/>
</linearGradient>
<linearGradient id="paint58_linear_122_130" x1="964.39" y1="-30" x2="964.39" y2="268.818" gradientUnits="userSpaceOnUse">
<stop stop-color="#F7DD43"/>
<stop offset="1" stop-color="#F7DD43" stop-opacity="0"/>
</linearGradient>
<linearGradient id="paint59_linear_122_130" x1="964.39" y1="-30" x2="964.39" y2="268.818" gradientUnits="userSpaceOnUse">
<stop stop-color="#F7DD43"/>
<stop offset="1" stop-color="#F7DD43" stop-opacity="0"/>
</linearGradient>
<linearGradient id="paint60_linear_122_130" x1="964.39" y1="-30" x2="964.39" y2="268.818" gradientUnits="userSpaceOnUse">
<stop stop-color="#F7DD43"/>
<stop offset="1" stop-color="#F7DD43" stop-opacity="0"/>
</linearGradient>
<linearGradient id="paint61_linear_122_130" x1="964.39" y1="-30" x2="964.39" y2="268.818" gradientUnits="userSpaceOnUse">
<stop stop-color="#F7DD43"/>
<stop offset="1" stop-color="#F7DD43" stop-opacity="0"/>
</linearGradient>
<linearGradient id="paint62_linear_122_130" x1="964.39" y1="-30" x2="964.39" y2="268.818" gradientUnits="userSpaceOnUse">
<stop stop-color="#F7DD43"/>
<stop offset="1" stop-color="#F7DD43" stop-opacity="0"/>
</linearGradient>
<linearGradient id="paint63_linear_122_130" x1="964.39" y1="-30" x2="964.39" y2="268.818" gradientUnits="userSpaceOnUse">
<stop stop-color="#F7DD43"/>
<stop offset="1" stop-color="#F7DD43" stop-opacity="0"/>
</linearGradient>
<linearGradient id="paint64_linear_122_130" x1="964.39" y1="-30" x2="964.39" y2="268.818" gradientUnits="userSpaceOnUse">
<stop stop-color="#F7DD43"/>
<stop offset="1" stop-color="#F7DD43" stop-opacity="0"/>
</linearGradient>
<linearGradient id="paint65_linear_122_130" x1="964.39" y1="-30" x2="964.39" y2="268.818" gradientUnits="userSpaceOnUse">
<stop stop-color="#F7DD43"/>
<stop offset="1" stop-color="#F7DD43" stop-opacity="0"/>
</linearGradient>
<linearGradient id="paint66_linear_122_130" x1="964.39" y1="-30" x2="964.39" y2="268.818" gradientUnits="userSpaceOnUse">
<stop stop-color="#F7DD43"/>
<stop offset="1" stop-color="#F7DD43" stop-opacity="0"/>
</linearGradient>
<linearGradient id="paint67_linear_122_130" x1="964.39" y1="-30" x2="964.39" y2="268.818" gradientUnits="userSpaceOnUse">
<stop stop-color="#F7DD43"/>
<stop offset="1" stop-color="#F7DD43" stop-opacity="0"/>
</linearGradient>
<linearGradient id="paint68_linear_122_130" x1="964.39" y1="-30" x2="964.39" y2="268.818" gradientUnits="userSpaceOnUse">
<stop stop-color="#F7DD43"/>
<stop offset="1" stop-color="#F7DD43" stop-opacity="0"/>
</linearGradient>
<linearGradient id="paint69_linear_122_130" x1="964.39" y1="-30" x2="964.39" y2="268.818" gradientUnits="userSpaceOnUse">
<stop stop-color="#F7DD43"/>
<stop offset="1" stop-color="#F7DD43" stop-opacity="0"/>
</linearGradient>
<linearGradient id="paint70_linear_122_130" x1="964.39" y1="-30" x2="964.39" y2="268.818" gradientUnits="userSpaceOnUse">
<stop stop-color="#F7DD43"/>
<stop offset="1" stop-color="#F7DD43" stop-opacity="0"/>
</linearGradient>
<linearGradient id="paint71_linear_122_130" x1="964.39" y1="-30" x2="964.39" y2="268.818" gradientUnits="userSpaceOnUse">
<stop stop-color="#F7DD43"/>
<stop offset="1" stop-color="#F7DD43" stop-opacity="0"/>
</linearGradient>
<linearGradient id="paint72_linear_122_130" x1="964.39" y1="-30" x2="964.39" y2="268.818" gradientUnits="userSpaceOnUse">
<stop stop-color="#F7DD43"/>
<stop offset="1" stop-color="#F7DD43" stop-opacity="0"/>
</linearGradient>
<linearGradient id="paint73_linear_122_130" x1="964.39" y1="-30" x2="964.39" y2="268.818" gradientUnits="userSpaceOnUse">
<stop stop-color="#F7DD43"/>
<stop offset="1" stop-color="#F7DD43" stop-opacity="0"/>
</linearGradient>
<linearGradient id="paint74_linear_122_130" x1="964.39" y1="-30" x2="964.39" y2="268.818" gradientUnits="userSpaceOnUse">
<stop stop-color="#F7DD43"/>
<stop offset="1" stop-color="#F7DD43" stop-opacity="0"/>
</linearGradient>
<linearGradient id="paint75_linear_122_130" x1="964.39" y1="-30" x2="964.39" y2="268.818" gradientUnits="userSpaceOnUse">
<stop stop-color="#F7DD43"/>
<stop offset="1" stop-color="#F7DD43" stop-opacity="0"/>
</linearGradient>
<linearGradient id="paint76_linear_122_130" x1="964.39" y1="-30" x2="964.39" y2="268.818" gradientUnits="userSpaceOnUse">
<stop stop-color="#F7DD43"/>
<stop offset="1" stop-color="#F7DD43" stop-opacity="0"/>
</linearGradient>
<linearGradient id="paint77_linear_122_130" x1="964.39" y1="-30" x2="964.39" y2="268.818" gradientUnits="userSpaceOnUse">
<stop stop-color="#F7DD43"/>
<stop offset="1" stop-color="#F7DD43" stop-opacity="0"/>
</linearGradient>
<linearGradient id="paint78_linear_122_130" x1="964.39" y1="-30" x2="964.39" y2="268.818" gradientUnits="userSpaceOnUse">
<stop stop-color="#F7DD43"/>
<stop offset="1" stop-color="#F7DD43" stop-opacity="0"/>
</linearGradient>
<linearGradient id="paint79_linear_122_130" x1="964.39" y1="-30" x2="964.39" y2="268.818" gradientUnits="userSpaceOnUse">
<stop stop-color="#F7DD43"/>
<stop offset="1" stop-color="#F7DD43" stop-opacity="0"/>
</linearGradient>
<linearGradient id="paint80_linear_122_130" x1="964.39" y1="-30" x2="964.39" y2="268.818" gradientUnits="userSpaceOnUse">
<stop stop-color="#F7DD43"/>
<stop offset="1" stop-color="#F7DD43" stop-opacity="0"/>
</linearGradient>
<linearGradient id="paint81_linear_122_130" x1="964.39" y1="-30" x2="964.39" y2="268.818" gradientUnits="userSpaceOnUse">
<stop stop-color="#F7DD43"/>
<stop offset="1" stop-color="#F7DD43" stop-opacity="0"/>
</linearGradient>
<linearGradient id="paint82_linear_122_130" x1="964.39" y1="-30" x2="964.39" y2="268.818" gradientUnits="userSpaceOnUse">
<stop stop-color="#F7DD43"/>
<stop offset="1" stop-color="#F7DD43" stop-opacity="0"/>
</linearGradient>
<linearGradient id="paint83_linear_122_130" x1="964.39" y1="-30" x2="964.39" y2="268.818" gradientUnits="userSpaceOnUse">
<stop stop-color="#F7DD43"/>
<stop offset="1" stop-color="#F7DD43" stop-opacity="0"/>
</linearGradient>
<linearGradient id="paint84_linear_122_130" x1="964.39" y1="-30" x2="964.39" y2="268.818" gradientUnits="userSpaceOnUse">
<stop stop-color="#F7DD43"/>
<stop offset="1" stop-color="#F7DD43" stop-opacity="0"/>
</linearGradient>
<linearGradient id="paint85_linear_122_130" x1="964.39" y1="-30" x2="964.39" y2="268.818" gradientUnits="userSpaceOnUse">
<stop stop-color="#F7DD43"/>
<stop offset="1" stop-color="#F7DD43" stop-opacity="0"/>
</linearGradient>
<linearGradient id="paint86_linear_122_130" x1="964.39" y1="-30" x2="964.39" y2="268.818" gradientUnits="userSpaceOnUse">
<stop stop-color="#F7DD43"/>
<stop offset="1" stop-color="#F7DD43" stop-opacity="0"/>
</linearGradient>
<linearGradient id="paint87_linear_122_130" x1="964.39" y1="-30" x2="964.39" y2="268.818" gradientUnits="userSpaceOnUse">
<stop stop-color="#F7DD43"/>
<stop offset="1" stop-color="#F7DD43" stop-opacity="0"/>
</linearGradient>
<linearGradient id="paint88_linear_122_130" x1="964.39" y1="-30" x2="964.39" y2="268.818" gradientUnits="userSpaceOnUse">
<stop stop-color="#F7DD43"/>
<stop offset="1" stop-color="#F7DD43" stop-opacity="0"/>
</linearGradient>
<linearGradient id="paint89_linear_122_130" x1="964.39" y1="-30" x2="964.39" y2="268.818" gradientUnits="userSpaceOnUse">
<stop stop-color="#F7DD43"/>
<stop offset="1" stop-color="#F7DD43" stop-opacity="0"/>
</linearGradient>
<linearGradient id="paint90_linear_122_130" x1="964.39" y1="-30" x2="964.39" y2="268.818" gradientUnits="userSpaceOnUse">
<stop stop-color="#F7DD43"/>
<stop offset="1" stop-color="#F7DD43" stop-opacity="0"/>
</linearGradient>
<linearGradient id="paint91_linear_122_130" x1="964.39" y1="-30" x2="964.39" y2="268.818" gradientUnits="userSpaceOnUse">
<stop stop-color="#F7DD43"/>
<stop offset="1" stop-color="#F7DD43" stop-opacity="0"/>
</linearGradient>
<linearGradient id="paint92_linear_122_130" x1="964.39" y1="-30" x2="964.39" y2="268.818" gradientUnits="userSpaceOnUse">
<stop stop-color="#F7DD43"/>
<stop offset="1" stop-color="#F7DD43" stop-opacity="0"/>
</linearGradient>
<linearGradient id="paint93_linear_122_130" x1="964.39" y1="-30" x2="964.39" y2="268.818" gradientUnits="userSpaceOnUse">
<stop stop-color="#F7DD43"/>
<stop offset="1" stop-color="#F7DD43" stop-opacity="0"/>
</linearGradient>
<clipPath id="clip0_122_130">
<rect width="1024" height="753" fill="white"/>
</clipPath>
</defs>
</svg>
